<?xml version="1.0" standalone="no"?>
<!DOCTYPE svg PUBLIC "-//W3C//DTD SVG 20010904//EN"
 "http://www.w3.org/TR/2001/REC-SVG-20010904/DTD/svg10.dtd">
<svg version="1.0" xmlns="http://www.w3.org/2000/svg"
 width="512.000000pt" height="512.000000pt" viewBox="0 0 512.000000 512.000000"
 preserveAspectRatio="xMidYMid meet">
<metadata>
Created by potrace 1.14, written by Peter Selinger 2001-2017
</metadata>
<g transform="translate(0.000000,512.000000) scale(0.100000,-0.100000)"
fill="#000000" stroke="none">
<path d="M4309 5100 c-1 -11 -2 -23 -3 -27 -1 -5 -5 -29 -10 -55 -27 -170
-153 -351 -476 -684 -165 -170 -229 -275 -272 -448 -45 -184 -23 -375 62 -534
46 -87 157 -196 226 -222 22 -9 34 -50 34 -117 0 -31 -3 -33 -52 -47 -138 -39
-318 -63 -464 -60 -88 1 -234 13 -245 20 -3 2 -21 6 -40 9 -64 10 -194 55
-263 90 -329 166 -444 476 -291 791 86 177 263 352 488 482 97 55 152 110 186
182 22 47 26 68 26 150 -1 83 -4 102 -28 152 -59 121 -167 199 -297 214 -25 3
-58 7 -75 9 -218 28 -651 17 -785 -20 -8 -2 -31 -7 -50 -10 -107 -18 -329 -87
-451 -141 -181 -79 -409 -215 -534 -318 -27 -22 -61 -50 -75 -61 -46 -37 -245
-239 -285 -290 -22 -27 -45 -56 -52 -63 -52 -55 -215 -317 -276 -442 -122
-254 -204 -534 -241 -820 -13 -101 -15 -485 -3 -555 3 -17 8 -50 11 -75 4 -38
19 -118 42 -227 8 -39 75 -267 82 -278 4 -5 7 -15 8 -21 1 -7 21 -56 45 -110
181 -416 457 -764 809 -1021 47 -35 90 -66 95 -70 42 -33 206 -125 317 -178
193 -92 488 -186 663 -211 28 -3 59 -8 70 -10 93 -18 434 -25 565 -12 319 32
608 115 884 254 60 31 121 63 135 73 14 10 33 20 41 23 8 4 58 36 110 72 51
36 95 64 97 63 3 -4 10 -79 18 -202 15 -251 20 -268 83 -310 82 -54 222 -58
311 -10 70 38 87 78 96 220 4 61 8 126 10 145 1 19 5 73 9 120 4 47 9 110 11
140 3 30 7 91 10 135 3 44 7 100 10 125 2 25 6 81 10 125 9 126 13 140 65 225
28 44 50 82 50 84 0 2 15 30 33 63 18 32 49 96 69 143 82 193 143 398 174 590
2 14 6 34 9 45 12 56 20 185 20 315 -1 125 -4 154 -23 210 -35 98 -86 177
-167 255 -96 93 -95 103 24 222 102 102 161 207 187 333 21 98 20 278 -1 350
-2 8 -6 26 -9 40 -6 38 -55 190 -76 235 -9 22 -28 65 -41 95 -13 30 -38 81
-56 112 -18 31 -33 61 -33 66 0 6 -3 12 -7 14 -5 2 -17 19 -27 38 -64 116
-333 484 -387 530 -3 3 -27 29 -52 58 -38 42 -47 49 -48 32z m-385 -2887 c7
-70 13 -155 21 -288 3 -55 8 -118 10 -140 2 -22 7 -83 10 -136 l7 -97 -53 4
c-72 5 -114 20 -175 60 -61 41 -97 82 -128 149 -79 166 -12 374 146 460 50 27
137 55 150 49 3 -2 9 -30 12 -61z"/>
</g>
</svg>
